<svg version="1.1" preserveAspectRatio="none" xmlns="http://www.w3.org/2000/svg" width="500" height="500" viewBox="0 0 500 500"><rect width="100%" height="100%" fill="#FFFFFF" fill-opacity="1"/><svg viewBox="0 -1 514 514" width="417" height="417" x="41.5px" y="41.5px" xmlns="http://www.w3.org/2000/svg" xmlns:xlink="http://www.w3.org/1999/xlink" preserveAspectRatio="none"><defs></defs><style>.aD6z1nYkhcolor814600a2-9506-4ac7-9ceb-563b7902aa6f {fill:#141414;fill-opacity:1;}.aD6z1nYkhstrokeColor-str814600a2-9506-4ac7-9ceb-563b7902aa6f {stroke:#6ADAFF;stroke-opacity:1;}.aOzGAs9i1U0filter-floo814600a2-9506-4ac7-9ceb-563b7902aa6f {flood-color:#141414;flood-opacity:0.5;}.aUPl23inifillColor814600a2-9506-4ac7-9ceb-563b7902aa6f {fill:#FBFBFB;fill-opacity:1;}.aWQqTkDrrp-color814600a2-9506-4ac7-9ceb-563b7902aa6f {fill:#141414;fill-opacity:1;}.aWQqTkDrrp-strokeColor-str814600a2-9506-4ac7-9ceb-563b7902aa6f {stroke:#000000;stroke-opacity:1;}.shapeStroke-str814600a2-9506-4ac7-9ceb-563b7902aa6f {stroke:#E5E5E5;stroke-opacity:1;}</style><defs>
      <filter
        x="40.0958"
        y="154.5697"
        width="369.2112"
        height="204.9694"
        id="814600a2-9506-4ac7-9ceb-563b7902aa6fOzGAs9i1U"
        filterUnits="userSpaceOnUse"
        primitiveUnits="userSpaceOnUse"
        color-interpolation-filters="sRGB">
        <feMerge><feMergeNode in="SourceGraphic" /></feMerge>
      </filter>
      <filter
        x="432.3386"
        y="329.0053"
        width="31.4186"
        height="31.5338"
        id="814600a2-9506-4ac7-9ceb-563b7902aa6fj4vnFpJ5eB"
        filterUnits="userSpaceOnUse"
        primitiveUnits="userSpaceOnUse"
        color-interpolation-filters="sRGB">
        <feMerge><feMergeNode in="SourceGraphic" /></feMerge>
      </filter></defs><g opacity="1" transform="rotate(0 0 -1)">
<svg width="514" height="514" x="0" y="-1" version="1.1" preserveAspectRatio="none" viewBox="0 0 514 514">
  <defs><rect x="0" y="0" width="514" height="514" rx="4%" ry="4%" id="id-814600a2-9506-4ac7-9ceb-563b7902aa6fUPl23ini1755704375470"></rect></defs><use class="aUPl23inifillColor814600a2-9506-4ac7-9ceb-563b7902aa6f shapeStroke-str814600a2-9506-4ac7-9ceb-563b7902aa6f" style="stroke-width:0;" xlink:href="#id-814600a2-9506-4ac7-9ceb-563b7902aa6fUPl23ini1755704375470"></use>
</svg>
</g><g opacity="1" transform="rotate(0 40.0958 154.5697)">
<svg width="369.2112" height="204.9694" x="40.0958" y="154.5697" version="1.1" preserveAspectRatio="none" viewBox="1.64 -28.8 52.96 29.4">
  <g transform="matrix(1 0 0 1 0 0)" class="aD6z1nYkhcolor814600a2-9506-4ac7-9ceb-563b7902aa6f"><path id="id-814600a2-9506-4ac7-9ceb-563b7902aa6fD6z1nYkh2" d="M24.96-27.36L24.96-7.56Q24.96-5.72 24.44-4.22Q23.92-2.72 22.62-1.66Q21.32-0.60 19.04 0Q16.76 0.60 13.24 0.60L13.24 0.60Q9.76 0.60 7.50 0Q5.24-0.60 3.94-1.66Q2.64-2.72 2.14-4.22Q1.64-5.72 1.64-7.56L1.64-7.56L1.64-14.04Q1.64-14.80 1.98-15.14Q2.32-15.48 3.08-15.48L3.08-15.48L8.88-15.48Q9.64-15.48 9.98-15.14Q10.32-14.80 10.32-14.04L10.32-14.04L10.32-9.16Q10.32-8.36 10.82-7.82Q11.32-7.28 13.16-7.28L13.16-7.28Q14.88-7.28 15.34-7.82Q15.80-8.36 15.80-9.16L15.80-9.16L15.80-27.36Q15.80-28.12 16.14-28.46Q16.48-28.80 17.24-28.80L17.24-28.80L23.52-28.80Q24.28-28.80 24.62-28.46Q24.96-28.12 24.96-27.36L24.96-27.36Z M38.88-5.40L38.88-1.44Q38.88-0.68 38.54-0.34Q38.20 0 37.44 0L37.44 0L31.36 0Q30.60 0 30.26-0.34Q29.92-0.68 29.92-1.44L29.92-1.44L29.92-5.72Q29.92-7.56 30.24-8.48Q30.56-9.40 31.44-10.64L31.44-10.64L34.68-15L31.44-19.36Q30.52-20.60 30.22-21.52Q29.92-22.44 29.92-24.28L29.92-24.28L29.92-27.36Q29.92-28.12 30.26-28.46Q30.60-28.80 31.36-28.80L31.36-28.80L37.52-28.80Q38.28-28.80 38.62-28.46Q38.96-28.12 38.96-27.36L38.96-27.36L38.96-24.60Q38.96-24.20 39-23.76Q39.04-23.32 39.32-22.92L39.32-22.92L41.08-20.40Q41.28-20.08 41.50-19.90Q41.72-19.72 42.04-19.72L42.04-19.72L42.52-19.72Q42.84-19.72 43.04-19.90Q43.24-20.08 43.48-20.40L43.48-20.40L45.28-22.92Q45.56-23.32 45.60-23.76Q45.64-24.20 45.64-24.60L45.64-24.60L45.64-27.36Q45.64-28.12 45.98-28.46Q46.32-28.80 47.08-28.80L47.08-28.80L53.16-28.80Q53.92-28.80 54.26-28.46Q54.60-28.12 54.60-27.36L54.60-27.36L54.60-24.28Q54.60-22.44 54.28-21.52Q53.96-20.60 53.08-19.36L53.08-19.36L49.84-14.96L53.08-10.64Q54-9.40 54.30-8.48Q54.60-7.56 54.60-5.72L54.60-5.72L54.60-1.44Q54.60-0.68 54.26-0.34Q53.92 0 53.16 0L53.16 0L47.08 0Q46.32 0 45.98-0.34Q45.64-0.68 45.64-1.44L45.64-1.44L45.64-5.40Q45.64-5.80 45.60-6.24Q45.56-6.68 45.28-7.08L45.28-7.08L43.52-9.60Q43.28-9.96 43.08-10.12Q42.88-10.28 42.56-10.28L42.56-10.28L42-10.28Q41.68-10.28 41.48-10.12Q41.28-9.96 41.04-9.60L41.04-9.60L39.24-7.08Q38.96-6.68 38.92-6.24Q38.88-5.80 38.88-5.40L38.88-5.40Z"/></g>
</svg>
</g><g opacity="1" transform="rotate(0 432.3386 329.0053)">
<svg width="31.4186" height="31.5338" x="432.3386" y="329.0053" version="1.1" preserveAspectRatio="none" viewBox="2.2 -11 10.96 11">
  <g transform="matrix(1 0 0 1 0 0)" class="aWQqTkDrrp-color814600a2-9506-4ac7-9ceb-563b7902aa6f"><path id="id-814600a2-9506-4ac7-9ceb-563b7902aa6fWQqTkDrrp-1" d="M11.72 0L11.72 0L3.64 0Q2.88 0 2.54-0.34Q2.20-0.68 2.20-1.44L2.20-1.44L2.20-9.56Q2.20-10.32 2.54-10.66Q2.88-11 3.64-11L3.64-11L11.72-11Q12.48-11 12.82-10.66Q13.16-10.32 13.16-9.56L13.16-9.56L13.16-1.44Q13.16-0.68 12.82-0.34Q12.48 0 11.72 0Z"/></g>
</svg>
</g></svg></svg>